<?xml version="1.0" encoding="utf-8"?>
<!-- Generator: Adobe Illustrator 16.0.0, SVG Export Plug-In . SVG Version: 6.00 Build 0)  -->
<!DOCTYPE svg PUBLIC "-//W3C//DTD SVG 1.1//EN" "http://www.w3.org/Graphics/SVG/1.1/DTD/svg11.dtd">
<svg version="1.1" id="Layer_1" xmlns="http://www.w3.org/2000/svg" xmlns:xlink="http://www.w3.org/1999/xlink" x="0px" y="0px"
	 width="250px" height="250px" viewBox="0 0 250 250" enable-background="new 0 0 250 250" xml:space="preserve">
<g>
	<path fill="#010101" d="M65,154.802v-0.178c0.307,0,0.613-0.043,0.876-0.133c0.701-0.265,1.139-0.665,1.358-1.417
		c0.263-0.797,0.263-2.525,0.263-4.076v-7.797c0-1.284,0-3.101-0.219-3.986c-0.263-0.931-0.658-1.284-1.49-1.505
		c-0.263-0.091-0.526-0.091-0.789-0.135v-0.177h10.868v0.177l-0.701,0.135c-0.789,0.309-1.184,0.842-1.358,1.859
		c-0.132,0.797-0.132,1.815-0.132,2.879v10.589c0,0.974,0.044,1.639,0.307,2.126c0.351,0.752,1.052,1.019,2.235,1.019
		c1.402,0,2.06-0.267,2.41-1.019c0.219-0.487,0.307-1.197,0.307-2.126v-10.589c0-1.063,0-2.082-0.175-2.879
		c-0.175-1.018-0.482-1.507-1.227-1.816c-0.263-0.089-0.526-0.134-0.789-0.178v-0.177h10.518v0.177l-0.745,0.135
		c-0.789,0.353-1.139,0.842-1.315,1.859c-0.131,0.797-0.131,1.815-0.131,2.879v10.589c0,0.974,0.044,1.639,0.307,2.126
		c0.307,0.752,1.008,1.019,2.322,1.019c1.052,0,1.972-0.178,2.323-1.019c0.263-0.487,0.307-1.152,0.307-2.126v-10.589
		c0-1.063,0-2.082-0.131-2.879c-0.175-1.018-0.482-1.507-1.271-1.816c-0.219-0.089-0.526-0.134-0.789-0.178v-0.177h10.868v0.177
		c-0.263,0.044-0.526,0.044-0.745,0.135c-0.876,0.221-1.271,0.574-1.534,1.505c-0.219,0.886-0.219,2.702-0.219,3.986v7.797
		c0,1.507,0,3.188,0.263,4.031c0.263,0.797,0.701,1.241,1.534,1.462c0.219,0.09,0.482,0.09,0.701,0.133v0.178H65z"/>
	<path fill="#010101" d="M99.006,152.676c0-1.418,1.008-2.525,2.366-2.525c0.613,0,1.052,0.265,1.402,0.576
		c0.263,0.177,0.526,0.354,0.833,0.354c0.701,0,1.096-0.665,1.359-3.057c0.131-1.062,0.482-5.536,0.613-8.639
		c0.044-0.576,0.044-1.151,0-1.683c-0.131-1.55-0.833-1.992-2.366-2.127v-0.177h16.696v0.177c-0.307,0.044-0.569,0.044-0.833,0.135
		c-0.833,0.309-1.227,0.707-1.446,1.638c-0.175,0.797-0.219,2.48-0.219,3.854v7.797c0,1.285,0,3.103,0.219,3.987
		c0.263,0.93,0.658,1.241,1.446,1.506c0.307,0.09,0.57,0.133,0.833,0.133v0.178h-10.956v-0.178c0.219,0,0.482-0.043,0.745-0.133
		c0.877-0.31,1.228-0.797,1.402-1.86c0.132-0.798,0.132-1.816,0.132-2.879v-10.589c0-0.974-0.044-1.682-0.351-2.17
		c-0.351-0.709-1.052-0.931-2.016-0.931c-1.884,0-2.366,1.152-2.585,3.322c-0.088,2.569-0.482,7.266-0.57,8.772
		c-0.482,4.562-1.227,7.043-4.076,7.043C100.145,155.2,99.049,154.137,99.006,152.676z"/>
	<path fill="#010101" d="M141.542,155.2c-4.952,0-9.816-3.677-9.86-10.012h-2.454v4.563c0,1.462,0,2.435,0.175,3.145
		c0.219,0.842,0.614,1.417,1.446,1.595c0.219,0.09,0.482,0.133,0.701,0.133v0.178h-11v-0.178c0.263,0,0.482-0.043,0.745-0.133
		c0.745-0.178,1.139-0.532,1.402-1.24c0.307-0.797,0.351-2.524,0.351-4.253v-7.797c0-1.639,0-3.366-0.307-4.165
		c-0.219-0.752-0.701-1.15-1.446-1.326c-0.219-0.091-0.482-0.091-0.745-0.135v-0.177h11v0.177c-0.219,0.044-0.482,0.044-0.701,0.135
		c-0.833,0.221-1.227,0.797-1.446,1.638c-0.175,0.709-0.175,1.639-0.175,3.101v4.031h2.454c0.307-5.979,5.127-9.479,9.86-9.479
		c4.908,0,9.86,3.722,9.86,10.1C151.402,151.479,146.494,155.2,141.542,155.2z M143.558,136.284
		c-0.525-0.665-1.358-0.842-2.016-0.842s-1.446,0.222-1.972,0.842c-1.008,1.152-1.402,4.121-1.402,8.815
		c0,4.695,0.438,7.62,1.402,8.815c0.526,0.709,1.315,0.887,1.972,0.887s1.446-0.178,2.016-0.843c0.92-1.196,1.359-4.164,1.359-8.859
		C144.917,140.405,144.522,137.525,143.558,136.284z"/>
	<path fill="#010101" d="M159.153,154.802v-0.221c0.57-0.046,0.789-0.09,1.052-0.268c0.351-0.221,0.526-0.441,0.526-1.15
		c0-0.443-0.175-0.977-0.613-1.728l-2.147-3.988l-1.622,2.881c-0.657,1.107-1.183,1.638-1.183,2.48c0,0.709,0.175,1.106,0.614,1.373
		c0.394,0.222,0.569,0.399,1.271,0.399v0.221h-6.398v-0.221c0.394-0.046,1.183-0.268,1.578-0.532
		c1.402-0.886,1.884-1.373,3.593-4.209l1.841-3.013l-4.032-7.529c-0.833-1.596-1.753-2.703-2.41-3.146
		c-0.395-0.267-0.964-0.488-1.359-0.533v-0.221h11.263v0.221c-0.57,0.045-0.789,0.091-1.052,0.267
		c-0.351,0.223-0.57,0.488-0.57,1.197c0,0.486,0.263,1.106,0.701,1.816l1.797,3.232l1.14-1.994c0.613-1.062,1.183-1.816,1.183-2.746
		c0-0.708-0.088-1.062-0.438-1.329c-0.351-0.266-0.613-0.398-1.358-0.443v-0.221h6.311v0.221c-0.395,0.045-1.183,0.312-1.578,0.576
		c-1.402,0.888-1.841,1.507-3.637,4.432l-1.315,2.214l4.339,8.239c0.789,1.462,1.753,2.525,2.41,2.969
		c0.395,0.265,1.052,0.486,1.446,0.532v0.221H159.153z"/>
	<path fill="#010101" d="M184.047,155.2c-1.578,0-2.629-0.354-3.243-1.019c-0.438-0.443-0.701-1.196-0.745-2.126h-0.087
		c-0.57,2.258-2.63,3.145-5.215,3.145c-2.542,0-4.996-1.506-4.996-5.094c0-1.463,0.395-2.216,1.139-3.058
		c1.096-1.283,3.418-1.639,4.733-2.081c3.55-0.975,4.295-2.349,4.295-3.942c0-0.931,0.044-2.261,0.044-2.925
		c0-2.082-0.482-2.525-2.147-2.525c-1.14,0-1.534,0.355-1.709,0.754c-0.132,0.486-0.044,1.595-0.044,2.791
		c0,1.815-0.833,2.657-2.586,2.657c-1.534,0-2.585-0.798-2.585-2.393c0-0.753,0.307-1.417,0.701-1.948
		c1.096-1.463,3.9-2.393,6.486-2.393c4.864,0,7.888,1.594,7.888,5.583v9.656c0,1.994,0.088,2.88,0.482,3.278
		c0.219,0.311,0.57,0.487,1.096,0.487c0.395,0,0.876-0.134,1.227-0.354v0.221C188.342,154.403,186.457,155.2,184.047,155.2z
		 M178.175,144.523c-0.833,0.533-1.227,1.019-1.622,1.861c-0.351,0.799-0.482,2.348-0.482,3.766c0,2.48,0.657,3.455,1.884,3.455
		c0.833,0,1.884-1.419,1.884-3.589l0.044-6.954C179.358,143.816,178.788,144.125,178.175,144.523z"/>
</g>
<g>
	<g>
		<path fill="#010101" d="M67,131.828V115h0.657v16.236h0.066L78.799,115h1.019v16.828h-0.657v-16.236h-0.066l-11.076,16.236H67z"/>
		<path fill="#010101" d="M86.275,117.399L86.308,115H96v16.828h-0.658v-16.204h-8.377l-0.033,1.775
			c-0.066,3.057-0.263,7.1-0.493,9.367c-0.23,2.465-1.347,5.259-3.78,5.259c-0.723,0-1.38-0.099-1.873-0.329v-0.788
			c0.69,0.394,1.282,0.46,1.84,0.46c2.038,0,2.925-2.563,3.155-4.602C86.012,124.466,86.243,120.324,86.275,117.399z"/>
		<path fill="#010101" d="M98.182,131.828V115h0.657v16.236h0.066L109.981,115H111v16.828h-0.657v-16.236h-0.066l-11.076,16.236
			H98.182z"/>
	</g>
</g>
<g>
	<g>
		<path fill="#010101" d="M80.987,90.983c-1.578,0-2.629-0.351-3.243-1.008c-0.438-0.438-0.701-1.184-0.745-2.104h-0.088
			c-0.569,2.234-2.629,3.111-5.215,3.111c-2.542,0-4.996-1.49-4.996-5.04c0-1.446,0.394-2.19,1.139-3.023
			c1.096-1.271,3.418-1.622,4.733-2.06c3.55-0.964,4.295-2.323,4.295-3.9c0-0.92,0.043-2.235,0.043-2.893
			c0-2.06-0.482-2.498-2.147-2.498c-1.14,0-1.534,0.351-1.709,0.745c-0.131,0.482-0.043,1.578-0.043,2.761
			c0,1.797-0.833,2.63-2.585,2.63c-1.534,0-2.586-0.789-2.586-2.367c0-0.745,0.307-1.402,0.701-1.928
			c1.096-1.446,3.9-2.366,6.486-2.366c4.865,0,7.888,1.577,7.888,5.521v9.554c0,1.972,0.088,2.849,0.482,3.243
			c0.219,0.307,0.569,0.481,1.095,0.481c0.395,0,0.876-0.132,1.227-0.351v0.219C85.282,90.194,83.398,90.983,80.987,90.983z
			 M75.115,80.422c-0.833,0.526-1.227,1.008-1.622,1.841c-0.351,0.789-0.482,2.322-0.482,3.725c0,2.454,0.657,3.418,1.884,3.418
			c0.833,0,1.884-1.402,1.884-3.549l0.044-6.881C76.298,79.721,75.729,80.027,75.115,80.422z"/>
		<path fill="#010101" d="M98.164,90.983c-2.147,0-3.287-0.438-4.558-1.402h-0.132v4.602c0,1.227-0.043,2.585,0.176,3.506
			c0.263,1.183,0.613,1.446,1.534,1.84c0.351,0.132,0.613,0.132,0.92,0.176v0.219H84.666v-0.219c0.307-0.044,0.57-0.044,0.92-0.176
			c0.92-0.394,1.271-0.657,1.534-1.84c0.219-0.921,0.175-2.279,0.175-3.506V76.741c0-0.789,0-2.323-0.088-3.024
			c-0.087-0.789-0.307-1.052-0.789-1.49c-0.526-0.438-1.534-0.614-1.928-0.658v-0.175h8.589c0.175,0,0.351,0.087,0.351,0.394
			l-0.044,2.849h0.219C94.351,72.402,96.586,71,98.602,71c4.646,0,8.195,3.287,8.195,9.992
			C106.796,87.127,103.159,90.983,98.164,90.983z M97.199,72.227c-2.235,0-3.725,2.848-3.725,6.354v5.215
			c0,1.885,0.395,4.12,1.184,5.04c0.789,0.92,1.578,1.358,2.673,1.358c2.104,0,2.98-2.41,2.98-9.422S99.434,72.227,97.199,72.227z"
			/>
		<path fill="#010101" d="M114.743,90.589V90.37c0.57-0.044,0.789-0.088,1.052-0.264c0.351-0.219,0.526-0.438,0.526-1.139
			c0-0.438-0.175-0.965-0.613-1.709l-2.147-3.944l-1.622,2.849c-0.657,1.096-1.183,1.621-1.183,2.454
			c0,0.701,0.175,1.095,0.613,1.358c0.395,0.219,0.57,0.395,1.271,0.395v0.219h-6.398V90.37c0.395-0.044,1.183-0.264,1.578-0.526
			c1.402-0.876,1.884-1.358,3.593-4.163l1.841-2.98l-4.032-7.449c-0.833-1.578-1.753-2.673-2.411-3.112
			c-0.394-0.263-0.964-0.482-1.358-0.526v-0.219h11.263v0.219c-0.57,0.044-0.789,0.088-1.052,0.263
			c-0.351,0.219-0.57,0.482-0.57,1.183c0,0.482,0.263,1.096,0.701,1.797l1.797,3.199l1.139-1.972
			c0.614-1.052,1.184-1.797,1.184-2.717c0-0.701-0.088-1.052-0.438-1.314c-0.351-0.263-0.613-0.395-1.358-0.438v-0.219h6.311v0.219
			c-0.395,0.044-1.183,0.307-1.578,0.57c-1.402,0.876-1.84,1.49-3.637,4.382l-1.315,2.191l4.338,8.15
			c0.789,1.446,1.753,2.498,2.411,2.937c0.394,0.263,1.052,0.482,1.446,0.526v0.219H114.743z"/>
		<path fill="#010101" d="M138.085,90.413c0.307,0,0.613-0.087,0.92-0.175c0.701-0.307,1.052-0.876,1.227-1.665
			c0.131-0.745,0.175-1.666,0.175-2.98V76.39v-0.131l-6.223,11.35l0.132,0.965c0.175,0.832,0.569,1.402,1.314,1.665
			c0.307,0.132,0.57,0.175,0.876,0.175v0.176h-11v-0.176c0.351,0,0.613-0.043,0.92-0.175c0.701-0.219,1.096-0.613,1.315-1.314
			c0.219-0.833,0.263-2.542,0.263-4.076v-7.712c0-1.534-0.044-3.243-0.263-4.032c-0.219-0.745-0.657-1.14-1.402-1.402
			c-0.263-0.088-0.526-0.088-0.833-0.132v-0.175h11v0.175c-0.307,0.044-0.614,0.088-0.876,0.176
			c-0.745,0.307-1.14,0.833-1.314,1.665c-0.132,0.745-0.132,1.665-0.132,2.98v9.203v0.57l6.179-11.263
			c0-0.57-0.087-1.052-0.131-1.49c-0.175-0.789-0.526-1.314-1.227-1.665c-0.307-0.088-0.614-0.132-0.92-0.176v-0.175h10.956v0.175
			c-0.307,0.044-0.57,0.044-0.877,0.176c-0.701,0.219-1.095,0.613-1.314,1.358c-0.263,0.789-0.307,2.498-0.307,4.032v7.712
			c0,1.534,0.044,3.243,0.307,4.076c0.219,0.745,0.657,1.14,1.446,1.358c0.263,0.088,0.482,0.131,0.745,0.131v0.176h-10.956V90.413z
			"/>
		<path fill="#010101" d="M84.712,101.284H84.45c-1.008-1.885-1.885-3.287-2.937-4.864c-0.876-1.402-1.621-2.191-3.067-2.41v12.752
			c0,1.271,0,3.068,0.219,3.77c0.307,1.095,0.658,1.358,1.271,1.621c0.307,0.132,0.745,0.175,1.008,0.175v0.176H69.769v-0.176
			c0.307,0,0.701-0.043,1.008-0.175c0.613-0.263,1.008-0.526,1.314-1.621c0.175-0.701,0.175-2.498,0.175-3.77V94.01
			c-1.402,0.219-2.235,1.008-3.111,2.41c-1.008,1.577-1.884,2.979-2.936,4.864H66l0.307-7.976h18.099L84.712,101.284z"/>
		<path fill="#010101" d="M91.971,102.073c0,5.39,0.92,7.449,2.016,8.633c0.57,0.613,1.666,1.052,2.673,1.052
			c3.287,0,5.127-3.023,5.829-5.565l0.438,0.132c-0.745,3.593-3.375,6.573-7.976,6.573c-2.06,0-4.338-0.57-6.091-1.929
			c-2.147-1.665-3.506-4.163-3.506-7.976c0-6.836,4.776-10.079,9.466-10.079c5.697,0,8.414,3.944,8.326,8.063
			c0,0.307,0,0.745-0.044,1.096H91.971z M96.485,94.141c-0.438-0.481-0.92-0.701-1.578-0.701c-0.657,0-1.183,0.176-1.665,0.701
			c-0.833,0.921-1.227,3.199-1.271,7.319h4.207c1.008,0,1.358-0.352,1.358-1.622C97.537,97.209,97.23,95.105,96.485,94.141z"/>
		<path fill="#010101" d="M103.122,112.327c0.307,0,0.57-0.043,0.833-0.131c0.745-0.219,1.183-0.613,1.402-1.358
			c0.219-0.833,0.263-2.542,0.263-4.076v-7.713c0-1.533-0.043-3.242-0.263-4.031c-0.219-0.745-0.657-1.14-1.358-1.402
			c-0.307-0.088-0.57-0.088-0.876-0.132v-0.175h11v0.175c-0.307,0.044-0.613,0.088-0.876,0.176
			c-0.789,0.307-1.139,0.876-1.315,1.665c-0.131,0.745-0.131,1.665-0.131,2.979v4.032h0.789c2.279,0,2.805-0.833,3.506-3.681
			c0.876-3.419,1.796-5.961,4.733-5.961c1.972,0,2.98,1.402,3.023,2.849c0,1.534-1.008,2.674-2.585,2.674
			c-1.052,0-1.622-0.395-2.016-0.833c-0.395-0.438-0.658-0.789-1.096-0.789c-0.745,0-1.052,1.14-1.49,2.849
			c-0.482,1.797-0.92,2.718-2.104,3.111v0.132c3.681,0.044,4.908,1.446,6.267,4.207c0.92,1.928,1.621,3.287,2.761,3.33
			c0.526,0,1.008-0.307,1.271-0.657l0.175,0.132c-0.876,2.147-2.542,3.374-4.689,3.374c-3.155,0-4.25-2.366-4.996-5.259
			c-0.92-3.111-1.402-4.82-3.199-4.82h-0.351v4.514c0,1.314,0,2.235,0.131,2.98c0.219,0.876,0.614,1.49,1.49,1.709
			c0.219,0.088,0.482,0.131,0.701,0.131v0.176h-11V112.327z"/>
		<path fill="#010101" d="M143.196,101.284h-0.263c-1.008-1.885-1.885-3.287-2.937-4.864c-0.876-1.402-1.621-2.191-3.067-2.41
			v12.752c0,1.271,0,3.068,0.219,3.77c0.307,1.095,0.658,1.358,1.271,1.621c0.307,0.132,0.745,0.175,1.008,0.175v0.176h-11.175
			v-0.176c0.307,0,0.701-0.043,1.008-0.175c0.613-0.263,1.008-0.526,1.314-1.621c0.175-0.701,0.175-2.498,0.175-3.77V94.01
			c-1.402,0.219-2.235,1.008-3.111,2.41c-1.008,1.577-1.884,2.979-2.936,4.864h-0.219l0.307-7.976h18.099L143.196,101.284z"/>
		<path fill="#010101" d="M153.698,112.897c-4.952,0-9.86-3.682-9.86-9.992s4.952-9.991,9.86-9.991c4.864,0,9.86,3.681,9.86,9.991
			S158.606,112.897,153.698,112.897z M155.669,94.185c-0.526-0.657-1.314-0.832-1.972-0.832c-0.701,0-1.49,0.219-2.016,0.832
			c-1.008,1.14-1.402,4.076-1.402,8.721c0,4.646,0.438,7.538,1.402,8.721c0.57,0.701,1.315,0.877,2.016,0.877
			c0.657,0,1.402-0.176,1.972-0.833c0.964-1.183,1.358-4.119,1.358-8.765C157.028,98.261,156.677,95.412,155.669,94.185z"/>
		<path fill="#010101" d="M176.851,112.897c-2.147,0-3.287-0.438-4.558-1.402h-0.132v4.602c0,1.227-0.043,2.585,0.176,3.506
			c0.263,1.183,0.613,1.446,1.534,1.84c0.351,0.132,0.613,0.132,0.92,0.176v0.219h-11.438v-0.219c0.307-0.044,0.57-0.044,0.92-0.176
			c0.92-0.394,1.271-0.657,1.534-1.84c0.219-0.921,0.175-2.279,0.175-3.506V98.655c0-0.789,0-2.323-0.088-3.024
			c-0.087-0.789-0.307-1.052-0.789-1.49c-0.526-0.438-1.534-0.613-1.928-0.657v-0.175h8.589c0.175,0,0.351,0.087,0.351,0.395
			l-0.044,2.849h0.219c0.745-2.235,2.98-3.638,4.996-3.638c4.646,0,8.195,3.286,8.195,9.991
			C185.484,109.041,181.847,112.897,176.851,112.897z M175.887,94.141c-2.235,0-3.725,2.849-3.725,6.354v5.215
			c0,1.885,0.395,4.12,1.184,5.04c0.789,0.92,1.578,1.358,2.673,1.358c2.104,0,2.98-2.41,2.98-9.422S178.122,94.141,175.887,94.141z
			"/>
	</g>
</g>
<rect x="65" y="174" fill="#010101" width="86" height="1"/>
</svg>
